<?xml version="1.0" standalone="no"?>
<!DOCTYPE svg PUBLIC "-//W3C//DTD SVG 20010904//EN"
 "http://www.w3.org/TR/2001/REC-SVG-20010904/DTD/svg10.dtd">
<svg version="1.0" xmlns="http://www.w3.org/2000/svg"
 width="2696.000000pt" height="2696.000000pt" viewBox="0 0 2696.000000 2696.000000"
 preserveAspectRatio="xMidYMid meet">
<metadata>
Created by potrace 1.14, written by Peter Selinger 2001-2017
</metadata>
<g transform="translate(0.000000,2696.000000) scale(0.100000,-0.100000)"
fill="#000000" stroke="none">
<path d="M21017 18384 c-1 -1 -40 -5 -87 -9 -276 -22 -572 -109 -820 -242
-272 -147 -579 -401 -778 -646 -325 -399 -487 -851 -486 -1352 0 -110 8 -232
18 -295 3 -14 7 -41 10 -60 18 -120 66 -304 106 -405 4 -11 13 -36 20 -55 16
-46 21 -57 79 -182 272 -582 834 -1117 1416 -1348 179 -71 416 -128 610 -146
39 -3 84 -8 100 -10 36 -5 422 -4 520 1 207 10 304 16 335 20 32 4 116 8 360
20 127 6 425 6 530 0 401 -23 719 -144 923 -351 202 -205 283 -498 217 -788
-26 -116 -98 -264 -171 -352 -250 -299 -727 -386 -1115 -205 -330 155 -546
449 -610 828 -25 153 -24 452 2 546 11 37 -7 14 -32 -40 -160 -355 -178 -686
-54 -999 150 -377 516 -675 920 -749 168 -31 359 -27 515 11 271 67 509 209
714 427 156 166 286 433 316 647 4 30 10 66 11 80 5 34 5 240 0 265 -2 11 -7
43 -10 70 -27 196 -129 433 -263 611 -228 304 -507 465 -903 519 -91 12 -500
13 -560 1 -22 -4 -72 -10 -175 -21 -16 -2 -43 -6 -60 -9 -16 -3 -50 -8 -75
-11 -25 -3 -70 -10 -100 -15 -30 -5 -72 -11 -92 -14 -53 -8 -107 -17 -131 -22
-12 -2 -37 -6 -57 -9 -20 -3 -46 -7 -59 -10 -13 -2 -46 -7 -75 -10 -28 -4 -64
-8 -81 -10 -191 -25 -646 -25 -770 -1 -11 2 -42 7 -70 10 -27 4 -68 11 -90 16
-22 5 -52 11 -66 14 -15 2 -70 16 -123 30 -660 180 -1119 654 -1245 1285 -53
264 -49 492 13 788 25 118 86 284 157 424 144 287 368 530 649 706 67 41 273
143 290 143 6 0 18 4 28 9 59 33 284 87 430 105 105 12 318 14 397 3 22 -4 60
-9 85 -12 25 -3 53 -8 62 -11 9 -3 25 -7 35 -9 285 -58 590 -211 813 -407 270
-238 442 -501 566 -866 14 -39 20 -48 25 -35 7 21 4 428 -4 458 -2 11 -8 43
-11 70 -12 93 -65 289 -106 395 -144 371 -414 688 -767 901 -66 40 -197 105
-318 159 -109 48 -414 121 -565 136 -68 6 -338 13 -343 8z"/>
<path d="M21458 17105 c-2 -1 -34 -5 -73 -8 -138 -12 -270 -50 -420 -121 -76
-36 -223 -128 -272 -169 -85 -74 -176 -161 -208 -201 -22 -27 -44 -54 -50 -60
-20 -21 -83 -123 -109 -174 -142 -280 -177 -601 -100 -907 92 -364 359 -711
671 -873 114 -59 279 -112 398 -128 28 -3 53 -8 56 -10 8 -4 217 -17 279 -17
62 0 279 12 310 17 14 3 54 7 90 11 36 4 76 8 90 10 14 3 41 7 60 9 74 11 135
20 140 21 3 0 28 4 55 9 92 14 110 17 165 26 85 15 109 18 200 30 47 6 101 13
120 15 174 23 610 23 727 1 12 -3 43 -7 70 -11 296 -40 601 -150 833 -300 333
-215 590 -573 689 -960 30 -120 52 -293 53 -420 1 -107 -9 -272 -17 -285 -2
-3 -6 -27 -9 -55 -11 -81 -63 -270 -102 -368 -190 -480 -539 -829 -1017 -1019
-122 -48 -275 -91 -369 -103 -24 -3 -72 -10 -108 -14 -65 -9 -363 -7 -410 3
-29 6 -96 17 -127 21 -90 13 -377 113 -468 165 -225 126 -319 195 -465 340
-205 204 -377 486 -466 765 -12 39 -23 61 -24 50 -1 -11 -3 -29 -6 -40 -12
-56 -4 -368 11 -446 2 -9 7 -39 11 -66 45 -312 202 -651 414 -897 145 -168
381 -350 590 -455 174 -88 420 -170 585 -195 17 -2 64 -10 105 -17 85 -14 397
-18 510 -7 88 9 121 14 215 35 39 8 79 16 90 19 91 18 316 100 430 156 153 76
382 231 525 354 79 68 253 247 317 325 156 192 297 442 371 659 23 69 44 134
46 145 3 11 11 49 20 85 17 75 24 111 31 171 3 24 8 67 11 94 8 64 8 337 0
390 -3 22 -8 60 -11 85 -67 517 -321 1025 -719 1437 -55 58 -141 139 -190 180
-48 41 -93 79 -100 84 -36 31 -203 147 -272 190 -261 158 -505 248 -824 305
-200 35 -684 40 -1050 9 -25 -2 -94 -6 -155 -10 -60 -3 -146 -8 -190 -11 -119
-8 -561 -8 -630 0 -130 14 -223 28 -285 42 -408 95 -676 304 -789 616 -71 193
-59 440 29 635 70 153 173 275 303 357 238 149 547 181 828 85 365 -123 621
-425 704 -827 34 -164 37 -348 10 -565 -5 -41 -4 -40 32 33 118 233 161 546
109 785 -19 86 -29 122 -56 193 -58 151 -156 296 -287 423 -227 222 -511 340
-846 353 -42 2 -77 2 -79 1z"/>
<path d="M16899 14463 c-9 -2 -23 -21 -31 -41 -23 -56 -188 -443 -203 -477 -8
-16 -66 -154 -130 -305 -65 -151 -123 -288 -130 -305 -8 -16 -59 -138 -115
-270 -56 -132 -107 -253 -115 -270 -17 -38 -345 -808 -435 -1020 -124 -295
-472 -1109 -496 -1163 -13 -29 -24 -55 -24 -57 0 -3 -10 -27 -21 -53 -12 -26
-30 -67 -41 -91 -10 -24 -17 -46 -14 -49 7 -6 614 -8 619 -1 2 2 16 36 31 74
16 39 34 84 41 100 7 17 30 71 50 120 20 50 41 101 47 115 6 14 56 135 112
270 l101 245 716 2 716 1 143 -361 c78 -199 148 -375 155 -392 7 -16 25 -63
40 -102 18 -47 34 -73 44 -74 58 -3 702 -1 705 2 3 3 -49 127 -217 519 -9 19
-169 397 -357 840 -187 443 -347 819 -355 835 -7 17 -30 71 -50 120 -21 50
-46 108 -56 130 -9 22 -68 159 -130 305 -61 146 -155 369 -209 495 -54 127
-157 370 -230 540 -72 171 -135 313 -138 316 -4 3 -14 4 -23 2z m39 -1558 c28
-71 117 -296 198 -500 187 -473 224 -568 224 -577 0 -5 -223 -8 -496 -8 l-495
0 7 22 c4 13 46 117 94 233 48 115 133 323 190 460 57 138 127 308 157 379 29
71 53 132 53 135 0 19 24 -32 68 -144z"/>
<path d="M3130 12399 c0 -1624 3 -2039 13 -2040 15 -1 609 -1 620 0 5 1 6 587
3 1303 l-5 1302 87 -86 c48 -48 117 -115 153 -150 56 -53 232 -223 649 -628
258 -251 568 -551 646 -627 51 -48 205 -198 344 -333 139 -135 284 -276 324
-314 39 -38 194 -189 345 -335 150 -146 279 -267 287 -269 12 -3 14 297 14
2037 l0 2041 -314 0 -315 0 5 -1325 c3 -729 4 -1325 2 -1325 -3 0 -253 246
-969 954 -556 549 -1551 1531 -1713 1691 -76 75 -147 138 -157 140 -19 4 -19
-48 -19 -2036z"/>
<path d="M1419 14298 c-1 -2 -2 -887 -3 -1967 -1 -1679 0 -1964 12 -1969 12
-4 531 -7 605 -3 16 1 17 102 17 1971 l0 1970 -315 0 c-173 0 -316 -1 -316 -2z"/>
<path d="M7419 14298 c-1 -2 -2 -139 -3 -305 l-1 -303 491 0 491 0 1 -1652 c0
-909 1 -1660 1 -1668 1 -13 43 -15 319 -15 l317 0 0 1665 0 1665 508 3 507 2
1 38 c0 20 1 156 1 302 l1 265 -1317 3 c-724 1 -1317 1 -1317 0z"/>
<path d="M11930 12331 c0 -1570 3 -1971 13 -1972 15 -1 610 -1 617 0 3 1 5
308 5 684 l0 682 314 0 313 0 110 -170 c60 -93 144 -224 187 -290 43 -66 104
-160 136 -210 32 -49 92 -142 133 -205 41 -63 85 -131 97 -150 132 -203 218
-336 221 -339 7 -8 726 -6 731 1 2 5 -11 32 -30 60 -58 90 -589 931 -604 958
-8 14 -81 131 -164 260 -128 202 -147 236 -133 245 237 145 354 266 473 489
27 52 86 208 96 254 2 9 10 51 19 92 30 144 38 322 23 491 -14 146 -82 367
-139 451 -10 14 -18 29 -18 33 0 19 -102 147 -169 213 -174 170 -455 308 -726
355 -49 9 -106 19 -125 23 -19 4 -338 9 -707 11 l-673 5 0 -1971z m1400 1343
c41 -9 113 -34 160 -56 208 -100 346 -334 355 -603 1 -53 -24 -192 -46 -251
-82 -219 -232 -345 -490 -411 -13 -3 -186 -8 -384 -10 l-360 -5 1 674 c1 370
2 674 3 676 0 1 155 2 344 2 263 -1 359 -5 417 -16z"/>
<path d="M19555 13938 c-110 -59 -291 -204 -427 -340 -297 -299 -529 -789
-565 -1194 -13 -141 -7 -358 13 -470 43 -242 134 -477 261 -672 116 -180 307
-381 485 -514 304 -227 601 -359 953 -423 114 -20 376 -27 510 -12 330 35 671
174 924 375 14 11 22 26 18 33 -5 13 -223 329 -244 354 -4 6 -26 36 -47 67
l-39 58 -32 -24 c-50 -38 -127 -89 -165 -109 -120 -63 -293 -117 -419 -131
-59 -7 -239 -8 -286 -1 -16 2 -50 6 -75 10 -51 7 -268 63 -285 73 -5 3 -14 7
-20 8 -19 3 -160 68 -197 91 -21 13 -40 23 -43 23 -10 0 -90 54 -170 116 -192
148 -328 331 -445 599 -31 73 -65 213 -77 320 -8 75 -7 227 1 278 40 244 121
433 263 612 110 138 306 295 476 381 26 13 47 28 47 32 -1 8 -379 466 -388
469 -4 1 -16 -3 -27 -9z"/>
<path d="M9585 12632 l-110 -3 1 -294 c0 -163 4 -299 8 -303 4 -4 367 -7 807
-7 l799 0 0 305 0 305 -698 0 c-383 0 -746 -1 -807 -3z"/>
<path d="M9482 10956 c-8 -14 -9 -568 -1 -586 6 -13 104 -15 801 -13 436 1
796 2 801 2 4 1 7 137 7 304 l0 302 -801 0 c-488 0 -803 -4 -807 -9z"/>
<path d="M5838 9725 c-2 -2 -23 -6 -47 -10 -205 -30 -391 -190 -462 -395 -27
-80 -32 -264 -10 -345 57 -202 195 -345 396 -410 72 -24 105 -29 193 -29 186
-2 319 34 436 116 l39 28 0 225 c0 124 -3 228 -6 232 -9 8 -186 8 -194 -1 -4
-3 -6 -85 -6 -180 l1 -174 -51 -21 c-228 -92 -476 -6 -569 197 -27 59 -31 78
-32 162 -1 116 13 167 67 245 74 105 190 165 329 170 114 4 227 -33 303 -99
17 -14 33 -26 36 -26 13 0 129 117 129 129 0 45 -183 151 -305 177 -32 6 -241
14 -247 9z"/>
<path d="M1439 9710 l-24 -5 0 -578 0 -578 335 4 c303 3 341 5 395 24 106 35
187 83 250 147 116 116 165 246 160 427 -4 168 -49 274 -160 384 -98 98 -217
153 -369 171 -61 8 -553 11 -587 4z m592 -196 c190 -44 308 -189 307 -377 -1
-178 -87 -310 -240 -369 -76 -29 -103 -32 -293 -33 l-170 0 -2 385 c-1 212 0
390 2 397 6 17 319 15 396 -3z"/>
<path d="M3855 9710 l-30 -5 0 -577 0 -578 107 0 c60 0 108 3 109 8 0 4 1 265
2 580 2 502 0 572 -13 573 -67 4 -150 3 -175 -1z"/>
<path d="M7723 9710 c-17 -5 -18 -34 -18 -582 l0 -578 107 0 c60 0 108 3 109
8 4 40 2 1136 -2 1144 -6 10 -165 17 -196 8z"/>
<path d="M9180 9710 l-56 -5 2 -80 c1 -44 2 -84 3 -90 1 -6 70 -9 191 -8 l190
2 0 -490 0 -489 109 0 109 0 1 428 c0 235 0 455 0 488 l1 62 185 0 c102 0 188
2 192 5 5 5 7 81 4 157 l-1 25 -437 0 c-241 0 -463 -2 -493 -5z"/>
<path d="M11615 9703 c-7 -6 -36 -64 -65 -130 -29 -65 -68 -149 -85 -188 -18
-38 -47 -104 -65 -145 -18 -41 -48 -109 -67 -150 -61 -132 -195 -431 -224
-497 l-18 -43 112 0 112 0 56 133 56 132 290 1 290 1 55 -131 56 -131 116 -3
c64 -1 116 -1 116 2 0 2 -17 42 -39 88 -21 45 -57 126 -81 178 -23 52 -64 142
-90 200 -26 58 -105 233 -175 390 -71 157 -131 289 -135 293 -12 14 -202 14
-215 0z m210 -459 c55 -130 102 -240 103 -245 2 -5 -91 -9 -207 -9 -122 0
-211 4 -211 9 0 5 40 101 88 213 49 112 94 218 101 236 8 17 16 32 20 32 3 0
51 -106 106 -236z"/>
<path d="M13565 9712 l-30 -3 0 -579 0 -580 412 0 413 0 0 90 0 90 -157 1
c-87 0 -223 1 -303 2 l-145 2 -2 445 c-1 245 -2 465 -2 490 l-1 45 -77 0 c-43
0 -92 -1 -108 -3z"/>
</g>
</svg>
